<svg width="720" height="420" viewBox="0 0 720 420" fill="none" xmlns="http://www.w3.org/2000/svg">
  <rect x="40" y="40" width="640" height="340" rx="32" fill="#0B1021" stroke="#1A2958" stroke-width="2"/>
  <rect x="92" y="96" width="172" height="76" rx="16" fill="#1C2C5C"/>
  <rect x="92" y="192" width="264" height="120" rx="20" fill="#132040"/>
  <rect x="196" y="110" width="52" height="12" rx="6" fill="#52D6FF"/>
  <rect x="108" y="208" width="120" height="14" rx="7" fill="#52D6FF" opacity="0.8"/>
  <rect x="108" y="232" width="180" height="12" rx="6" fill="#3C4C7B"/>
  <rect x="108" y="254" width="140" height="12" rx="6" fill="#3C4C7B" opacity="0.8"/>
  <rect x="108" y="276" width="200" height="12" rx="6" fill="#3C4C7B" opacity="0.65"/>
  <rect x="376" y="96" width="252" height="216" rx="24" fill="#101B38"/>
  <circle cx="502" cy="158" r="54" fill="#1C2C5C"/>
  <circle cx="502" cy="158" r="28" fill="#52D6FF" opacity="0.8"/>
  <rect x="420" y="230" width="164" height="12" rx="6" fill="#52D6FF" opacity="0.9"/>
  <rect x="420" y="252" width="204" height="12" rx="6" fill="#3C4C7B"/>
  <rect x="420" y="274" width="148" height="12" rx="6" fill="#3C4C7B" opacity="0.8"/>
  <circle cx="156" cy="344" r="22" fill="#1C2C5C"/>
  <circle cx="220" cy="344" r="22" fill="#1C2C5C"/>
  <circle cx="284" cy="344" r="22" fill="#1C2C5C"/>
  <path d="M156 342L170 330" stroke="#52D6FF" stroke-width="4" stroke-linecap="round"/>
  <path d="M220 342L208 330" stroke="#52D6FF" stroke-width="4" stroke-linecap="round"/>
  <path d="M284 342L298 330" stroke="#52D6FF" stroke-width="4" stroke-linecap="round"/>
  <circle cx="562" cy="310" r="18" fill="#1C2C5C"/>
  <path d="M552 310H572" stroke="#52D6FF" stroke-width="4" stroke-linecap="round"/>
  <rect x="360" y="54" width="120" height="12" rx="6" fill="#52D6FF" opacity="0.7"/>
  <rect x="500" y="54" width="80" height="12" rx="6" fill="#3C4C7B"/>
  <rect x="440" y="60" width="36" height="36" rx="12" fill="#132040"/>
  <path d="M454 72L462 80" stroke="#52D6FF" stroke-width="4" stroke-linecap="round"/>
  <path d="M462 72L454 80" stroke="#52D6FF" stroke-width="4" stroke-linecap="round"/>
</svg>
